<?xml version="1.0" encoding="utf-8"?>
<svg xmlns="http://www.w3.org/2000/svg"
	xmlns:xlink="http://www.w3.org/1999/xlink"
	width="102px" height="66px" viewBox="0 0 102 66">
<path fillRule="evenodd" d="M 101.85 34.16C 101.84 34.36 101.8 34.67 101.66 35.02 101.63 35.1 101.59 35.19 101.54 35.28 101.48 35.48 101.39 35.66 101.31 35.81 91.94 53.81 71.69 66.01 51 66.01 30.31 66.01 10.06 53.8 0.6 35.64 0.55 35.52 0.49 35.38 0.44 35.24 0.38 35.12 0.33 35.01 0.3 34.9 0.19 34.64 0.15 34.33 0.14 34.13 0.07 33.81-0.01 33.44-0.01 33-0.01 32.54 0.07 32.15 0.14 31.86 0.16 31.66 0.2 31.33 0.35 30.97 0.37 30.9 0.41 30.83 0.44 30.75 0.5 30.59 0.57 30.43 0.64 30.3 10.06 12.21 30.31 0.02 51 0.02 71.68 0.02 91.93 12.22 101.39 30.39 101.45 30.5 101.5 30.64 101.55 30.78 101.6 30.88 101.65 30.98 101.68 31.08 101.8 31.39 101.84 31.7 101.85 31.89 101.92 32.2 102 32.58 102 33.02 102 33.49 101.92 33.88 101.85 34.16ZM 96.76 32.97C 96.74 32.9 96.73 32.84 96.72 32.78 96.69 32.7 96.66 32.63 96.64 32.56 87.97 16.19 69.68 5.24 51 5.24 32.29 5.24 13.98 16.21 5.35 32.55 5.33 32.61 5.3 32.68 5.27 32.75 5.26 32.81 5.25 32.87 5.24 32.93 5.24 32.93 5.22 33 5.22 33 5.23 33.05 5.24 33.1 5.24 33.1 5.26 33.15 5.27 33.2 5.28 33.26 5.28 33.26 5.28 33.27 5.28 33.27 5.31 33.34 5.33 33.41 5.35 33.47 14.04 49.85 32.32 60.78 51 60.78 69.71 60.78 88.02 49.82 96.65 33.48 96.67 33.41 96.69 33.35 96.71 33.29 96.71 33.29 96.71 33.28 96.72 33.27 96.73 33.22 96.74 33.15 96.75 33.1 96.75 33.1 96.77 33.02 96.77 33.02 96.77 33.02 96.76 32.97 96.76 32.97ZM 51 54.75C 39.15 54.75 29.5 45 29.5 33.01 29.5 21.02 39.15 11.27 51 11.27 62.86 11.27 72.5 21.02 72.5 33.01 72.5 45 62.86 54.75 51 54.75ZM 51 12.88C 40.02 12.88 31.09 21.91 31.09 33.01 31.09 44.11 40.02 53.14 51 53.14 61.98 53.14 70.91 44.11 70.91 33.01 70.91 21.91 61.98 12.88 51 12.88ZM 51 44.28C 44.84 44.28 39.84 39.24 39.84 33.01 39.84 26.79 44.83 21.74 51 21.74 57.16 21.74 62.16 26.78 62.16 33.01 62.16 39.24 57.16 44.28 51 44.28ZM 50.98 23.85C 50.98 23.85 50.97 23.85 50.97 23.85 45.93 23.86 41.85 27.96 41.85 33.01 41.85 33.65 42.36 34.16 42.99 34.16 43.62 34.16 44.13 33.65 44.13 33.01 44.13 29.23 47.2 26.14 50.98 26.14 50.98 26.14 50.98 26.14 50.98 26.14 51.61 26.14 52.12 25.63 52.12 25 52.12 24.36 51.61 23.85 50.98 23.85Z" fill="rgb(255,255,255)"/></svg>