<?xml version="1.0" encoding="utf-8"?>
<svg xmlns="http://www.w3.org/2000/svg"
	xmlns:xlink="http://www.w3.org/1999/xlink"
	width="94px" height="94px" viewBox="0 0 94 94">
<path fillRule="evenodd" d="M 92.19 54.37C 92.19 54.37 81.13 58.35 81.13 58.35 81.13 58.35 79.19 63.03 79.19 63.03 79.19 63.03 84.44 73.36 84.44 73.36 84.98 74.41 84.77 75.68 83.94 76.52 83.94 76.52 76.81 83.66 76.81 83.66 75.99 84.47 74.76 84.68 73.72 84.19 73.72 84.19 63.1 79.17 63.1 79.17 63.1 79.17 58.43 81.09 58.43 81.09 58.43 81.09 54.85 92.11 54.85 92.11 54.49 93.24 53.44 94.01 52.25 94.01 52.25 94.01 42.17 94.01 42.17 94.01 41.02 94.01 40 93.29 39.61 92.21 39.61 92.21 35.65 81.15 35.65 81.15 35.65 81.15 30.97 79.22 30.97 79.22 30.97 79.22 20.62 84.47 20.62 84.47 19.57 84.99 18.31 84.78 17.48 83.96 17.48 83.96 10.35 76.83 10.35 76.83 9.54 76.01 9.32 74.78 9.81 73.74 9.81 73.74 14.82 63.11 14.82 63.11 14.82 63.11 12.89 58.44 12.89 58.44 12.89 58.44 1.88 54.84 1.88 54.84 0.76 54.48 0 53.44 0 52.26 0 52.26 0 42.17 0 42.17 0 41.02 0.72 40 1.8 39.61 1.8 39.61 12.86 35.65 12.86 35.65 12.86 35.65 14.79 30.98 14.79 30.98 14.79 30.98 9.55 20.64 9.55 20.64 9.01 19.59 9.22 18.31 10.05 17.48 10.05 17.48 17.17 10.36 17.17 10.36 17.98 9.54 19.22 9.33 20.25 9.82 20.25 9.82 30.89 14.83 30.89 14.83 30.89 14.83 35.56 12.9 35.56 12.9 35.56 12.9 39.14 1.88 39.14 1.88 39.5 0.75 40.55-0.02 41.73-0.02 41.73-0.02 51.81-0.02 51.81-0.02 52.96-0.02 53.99 0.71 54.38 1.79 54.38 1.79 58.34 12.86 58.34 12.86 58.34 12.86 63 14.79 63 14.79 63 14.79 73.36 9.54 73.36 9.54 74.41 9.01 75.67 9.21 76.51 10.04 76.51 10.04 83.63 17.17 83.63 17.17 84.44 17.98 84.66 19.22 84.17 20.26 84.17 20.26 79.16 30.88 79.16 30.88 79.16 30.88 81.08 35.56 81.08 35.56 81.08 35.56 92.1 39.14 92.1 39.14 93.23 39.5 93.99 40.55 93.99 41.73 93.99 41.73 93.99 51.81 93.99 51.81 93.99 52.96 93.27 53.98 92.19 54.37ZM 89 44C 89 44 78.2 40.34 78.2 40.34 77.44 40.09 76.83 39.53 76.53 38.79 76.53 38.79 73.67 31.83 73.67 31.83 73.38 31.13 73.4 30.33 73.73 29.64 73.73 29.64 78.43 19.66 78.43 19.66 78.43 19.66 74.05 15.28 74.05 15.28 74.05 15.28 64.34 20.21 64.34 20.21 63.64 20.57 62.81 20.6 62.07 20.3 62.07 20.3 55.14 17.43 55.14 17.43 54.43 17.13 53.88 16.55 53.62 15.83 53.62 15.83 50 5 50 5 50 5 44 5 44 5 44 5 40.34 15.78 40.34 15.78 40.1 16.53 39.53 17.14 38.8 17.45 38.8 17.45 31.86 20.32 31.86 20.32 31.15 20.61 30.35 20.59 29.66 20.26 29.66 20.26 19.67 15.56 19.67 15.56 19.67 15.56 15.29 19.93 15.29 19.93 15.29 19.93 20.21 29.63 20.21 29.63 20.56 30.34 20.6 31.17 20.29 31.9 20.29 31.9 17.43 38.84 17.43 38.84 17.14 39.55 16.56 40.11 15.83 40.36 15.83 40.36 5 44 5 44 5 44 5 50 5 50 5 50 15.77 53.66 15.77 53.66 16.53 53.9 17.14 54.47 17.44 55.2 17.44 55.2 20.31 62.15 20.31 62.15 20.6 62.86 20.58 63.65 20.25 64.35 20.25 64.35 15.55 74.33 15.55 74.33 15.55 74.33 19.94 78.72 19.94 78.72 19.94 78.72 29.63 73.8 29.63 73.8 30.33 73.45 31.16 73.41 31.9 73.72 31.9 73.72 38.84 76.58 38.84 76.58 39.55 76.88 40.11 77.46 40.37 78.18 40.37 78.18 44 89 44 89 44 89 50 89 50 89 50 89 53.64 78.21 53.64 78.21 53.89 77.45 54.46 76.84 55.2 76.54 55.2 76.54 62.15 73.68 62.15 73.68 62.86 73.39 63.65 73.41 64.34 73.74 64.34 73.74 74.31 78.45 74.31 78.45 74.31 78.45 78.7 74.07 78.7 74.07 78.7 74.07 73.77 64.39 73.77 64.39 73.41 63.67 73.38 62.84 73.68 62.11 73.68 62.11 76.56 55.15 76.56 55.15 76.86 54.45 77.44 53.9 78.16 53.64 78.16 53.64 89 50 89 50 89 50 89 44 89 44ZM 47.02 63.28C 38.04 63.28 30.73 55.97 30.73 47 30.73 38.03 38.04 30.72 47.02 30.72 55.97 30.72 63.26 38.03 63.26 47 63.26 55.97 55.97 63.28 47.02 63.28ZM 47.02 32.47C 39 32.47 32.48 38.99 32.48 47 32.48 55.01 39 61.53 47.02 61.53 55.01 61.53 61.51 55.01 61.51 47 61.51 38.99 55.01 32.47 47.02 32.47Z" fill="rgb(33,37,41)"/></svg>