<?xml version="1.0" encoding="utf-8"?>
<svg xmlns="http://www.w3.org/2000/svg"
	xmlns:xlink="http://www.w3.org/1999/xlink"
	width="14px" height="22px" viewBox="0 0 14 22">
<path fillRule="evenodd" d="M 12-0C 12-0 2-0 2-0 0.51-0 0 0.56 0 2 0 2 0 20 0 20 0 21.44 0.51 22 2 22 2 22 12 22 12 22 13.49 22 14 21.44 14 20 14 20 14 2 14 2 14 0.56 13.49-0 12-0ZM 7 21C 6.11 21 6 20.87 6 20 6 19.13 6.11 19 7 19 7.89 19 8 19.13 8 20 8 20.87 7.89 21 7 21ZM 12 18C 12 18 2 18 2 18 2 18 2 3 2 3 2 3 12 3 12 3 12 3 12 18 12 18Z" fill="rgb(127,127,127)"/></svg>