<?xml version="1.0" encoding="utf-8"?>
<svg xmlns="http://www.w3.org/2000/svg"
	xmlns:xlink="http://www.w3.org/1999/xlink"
	width="94px" height="68px" viewBox="0 0 94 68">
<path fillRule="evenodd" d="M 83 68C 83 68 11 68 11 68 5.37 68-0 62.63-0 57-0 57-0 10-0 10-0 4.37 5.37-0 11-0 11-0 83-0 83-0 88.63-0 94 4.37 94 10 94 10 94 57 94 57 94 62.63 88.63 68 83 68ZM 89 10C 89 7.54 85.46 5 83 5 83 5 11 5 11 5 8.54 5 5 7.54 5 10 5 10 5 57 5 57 5 59.46 8.54 63 11 63 11 63 83 63 83 63 85.46 63 89 59.46 89 57 89 57 89 10 89 10ZM 81 59C 81 59 37 59 37 59 34.92 59 33 57.08 33 55 33 55 33 34 33 34 33 31.92 34.92 30 37 30 37 30 81 30 81 30 83.08 30 85 31.92 85 34 85 34 85 55 85 55 85 57.08 83.08 59 81 59ZM 83 34C 83 32.97 82.03 32 81 32 81 32 37 32 37 32 35.97 32 35 32.97 35 34 35 34 35 55 35 55 35 56.03 35.97 57 37 57 37 57 80.58 57 81 57 82.42 56.87 83.07 56.01 83 55 83 55 83 34 83 34ZM 81 28C 81 28 13 28 13 28 10.92 28 9 26.08 9 24 9 24 9 13 9 13 9 10.92 10.92 9 13 9 13 9 81 9 81 9 83.08 9 85 10.92 85 13 85 13 85 24 85 24 85 26.08 83.08 28 81 28ZM 83 13C 83 11.97 82.03 11 81 11 81 11 13 11 13 11 11.97 11 11 11.97 11 13 11 13 11 24 11 24 11 25.03 11.97 26 13 26 13 26 81 26 81 26 82.03 26 83 25.03 83 24 83 24 83 13 83 13ZM 13 30C 13 30 27 30 27 30 29.08 30 31 31.92 31 34 31 34 31 55 31 55 31 57.08 29.08 59 27 59 27 59 13 59 13 59 10.92 59 9 57.08 9 55 9 55 9 34 9 34 9 31.92 10.92 30 13 30ZM 11 55C 11 56.03 11.97 57 13 57 13 57 27 57 27 57 28.03 57 29 56.03 29 55 29 55 29 34 29 34 29 32.97 28.03 32 27 32 27 32 13 32 13 32 11.97 32 11 32.97 11 34 11 34 11 55 11 55Z" fill="rgb(33,37,41)"/></svg>