<?xml version="1.0" encoding="utf-8"?>
<svg xmlns="http://www.w3.org/2000/svg"
	xmlns:xlink="http://www.w3.org/1999/xlink"
	width="90px" height="82px" viewBox="0 0 90 82">
<path fillRule="evenodd" d="M 90 57.21C 90 64.4 84.15 70 77 70 77 70 73 70 73 70 74.03 71.68 74.34 75.07 73.8 77.07 72.91 80.38 70.57 81.96 67 82 67 82 50 82 50 82 50 82 48 82 48 82 48 82 23 82 23 82 19.43 81.96 17.09 80.36 16.2 77 15.66 74.98 16.97 71.7 18 70 18 70 13 70 13 70 5.85 70 0 64.28 0 57 0 57 0 12 0 12 0 4.72 5.85-0 13-0 13-0 77-0 77-0 84.15-0 90 4.72 90 12 90 12 90 53.6 90 53.6 90 53.6 90 57.21 90 57.21ZM 23.4 77C 23.4 77 51.3 77 51.3 77 51.3 77 56.53 77 56.53 77 56.53 77 61.2 77 61.2 77 61.2 77 66.6 77 66.6 77 69.44 76.96 66.6 71.73 66.6 71.73 66.6 71.73 65.99 70.54 65 70 65 70 62 70 62 70 62 70 61 70 61 70 61 70 25 70 25 70 24.01 70.54 23.4 71.6 23.4 71.6 23.4 71.6 20.56 76.96 23.4 77ZM 85 55C 85 55 85 53 85 53 85 53 85 12 85 12 85 7.91 81.02 5 77 5 77 5 12.6 5 12.6 5 8.58 5 5 7.91 5 12 5 12 5 57 5 57 5 61.09 8.98 65 13 65 13 65 25 65 25 65 25 65 49 65 49 65 49 65 77 65 77 65 81.02 65 85 61.04 85 57 85 57 85 55 85 55ZM 81 57C 81 59.08 79.07 61 77 61 77 61 58 61 58 61 58 61 13 61 13 61 10.93 61 9 59.1 9 57 9 57 9 13 9 13 9 10.9 10.93 9 13 9 13 9 77 9 77 9 79.07 9 81 10.9 81 13 81 13 81 54.6 81 54.6 81 54.6 81 56 81 56 81 56 81 56 81 56 81.15 55.92 81.08 56.02 81 56.13 81 56.13 81 57 81 57ZM 79 56C 79 56 79 54 79 54 79 54 79 13 79 13 79 11.96 78.02 11 77 11 77 11 13 11 13 11 11.98 11 11 11.96 11 13 11 13 11 57 11 57 11 58.04 11.98 59 13 59 13 59 57.6 59 57.6 59 57.6 59 77 59 77 59 78.02 59 79 58.03 79 57 79 57 79 56 79 56ZM 39.27 44.17C 39.27 44.17 36.88 45.5 36.88 45.5 36.88 45.5 31.9 37.17 31.9 37.17 31.9 37.17 26.52 44.1 26.52 44.1 26.52 44.1 23.4 20.29 23.4 20.29 23.4 20.29 43.2 34.8 43.2 34.8 43.2 34.8 34.29 35.84 34.29 35.84 34.29 35.84 39.27 44.17 39.27 44.17Z" fill="rgb(255,255,255)"/></svg>