<?xml version="1.0" encoding="utf-8"?>
<svg xmlns="http://www.w3.org/2000/svg"
	xmlns:xlink="http://www.w3.org/1999/xlink"
	width="20px" height="19px" viewBox="0 0 20 19">
<path fillRule="evenodd" d="M 15.66 14.2C 13.04 13.25 12.2 12.45 12.2 10.73 12.2 9.71 13 10.04 13.35 8.16 13.5 7.38 14.2 8.15 14.34 6.36 14.34 5.65 13.95 5.48 13.95 5.48 13.95 5.48 14.15 4.42 14.23 3.61 14.32 2.61 13.64-0 10-0 6.36-0 5.68 2.61 5.77 3.61 5.85 4.42 6.05 5.48 6.05 5.48 6.05 5.48 5.66 5.65 5.66 6.36 5.79 8.15 6.5 7.38 6.65 8.16 7 10.04 7.8 9.71 7.8 10.73 7.8 12.45 6.96 13.25 4.34 14.2 1.71 15.15-0 16.12-0 16.78-0 17.44-0 19-0 19-0 19 10 19 10 19 10 19 20 19 20 19 20 19 20 17.44 20 16.78 20 16.12 18.29 15.15 15.66 14.2Z" fill="rgb(127,127,127)"/></svg>